# 3ds Max Wavefront OBJ Exporter v0.97b - (c)2007 guruware
# File Created: 06.04.2016 19:51:03

#
# object Box001
#

v  -5.0128 0.0000 5.0564
v  -5.0128 0.0000 -4.9436
v  4.9872 0.0000 -4.9436
v  4.9872 0.0000 5.0564
v  -5.0128 5.0000 5.0564
v  4.9872 5.0000 5.0564
v  4.9872 5.0000 -4.9436
v  -5.0128 5.0000 -4.9436
# 8 vertices

vn 0.0000 -1.0000 -0.0000
vn 0.0000 1.0000 -0.0000
vn 0.0000 0.0000 1.0000
vn 1.0000 0.0000 -0.0000
vn 0.0000 0.0000 -1.0000
vn -1.0000 0.0000 -0.0000
# 6 vertex normals

vt 1.0000 0.0000 0.0000
vt 1.0000 1.0000 0.0000
vt 0.0000 1.0000 0.0000
vt 0.0000 0.0000 0.0000
# 4 texture coords

g Box001
f 1/1/1 2/2/1 3/3/1 
f 3/3/1 4/4/1 1/1/1 
f 5/4/2 6/1/2 7/2/2 
f 7/2/2 8/3/2 5/4/2 
f 1/4/3 4/1/3 6/2/3 
f 6/2/3 5/3/3 1/4/3 
f 4/4/4 3/1/4 7/2/4 
f 7/2/4 6/3/4 4/4/4 
f 3/4/5 2/1/5 8/2/5 
f 8/2/5 7/3/5 3/4/5 
f 2/4/6 1/1/6 5/2/6 
f 5/2/6 8/3/6 2/4/6 
# 12 faces

#
# object Plane001
#

v  0.0000 13.5691 -0.0904
v  0.0000 13.5691 -0.0894
v  0.0010 13.5691 -0.0904
v  0.0010 13.5691 -0.0894
# 4 vertices

vn 0.0000 1.0000 -0.0000
# 1 vertex normals

vt 0.0000 1.0000 0.0000
vt 0.0000 0.0000 0.0000
vt 1.0000 1.0000 0.0000
vt 1.0000 0.0000 0.0000
# 4 texture coords

g Plane001
f 9/5/7 10/6/7 11/7/7 
f 12/8/7 11/7/7 10/6/7 
# 2 faces

