# 3ds Max Wavefront OBJ Exporter v0.97b - (c)2007 guruware
# File Created: 22.05.2015 02:20:15

#
# object Box001
#

v  -20.0000 0.0000 20.0000
v  -20.0000 0.0000 -20.0000
v  20.0000 0.0000 -20.0000
v  20.0000 0.0000 20.0000
v  -20.0000 40.0000 20.0000
v  20.0000 40.0000 20.0000
v  20.0000 40.0000 -20.0000
v  -20.0000 40.0000 -20.0000
# 8 vertices

vn 0.0000 -1.0000 -0.0000
vn 0.0000 1.0000 -0.0000
vn 0.0000 0.0000 1.0000
vn 1.0000 0.0000 -0.0000
vn 0.0000 0.0000 -1.0000
vn -1.0000 0.0000 -0.0000
# 6 vertex normals

vt 1.0000 0.0000 0.0000
vt 1.0000 1.0000 0.0000
vt 0.0000 1.0000 0.0000
vt 0.0000 0.0000 0.0000
# 4 texture coords

g Box001
s 2
f 1/1/1 2/2/1 3/3/1 
f 3/3/1 4/4/1 1/1/1 
s 4
f 5/4/2 6/1/2 7/2/2 
f 7/2/2 8/3/2 5/4/2 
s 8
f 1/4/3 4/1/3 6/2/3 
f 6/2/3 5/3/3 1/4/3 
s 16
f 4/4/4 3/1/4 7/2/4 
f 7/2/4 6/3/4 4/4/4 
s 32
f 3/4/5 2/1/5 8/2/5 
f 8/2/5 7/3/5 3/4/5 
s 64
f 2/4/6 1/1/6 5/2/6 
f 5/2/6 8/3/6 2/4/6 
# 12 faces

#
# object Box002
#

v  -12.5872 24.8143 18.7647
v  -12.5872 34.8143 18.7647
v  -7.5872 34.8143 18.7582
v  -7.5872 24.8143 18.7582
v  -12.5833 24.8143 21.7647
v  -7.5833 24.8143 21.7582
v  -7.5833 34.8143 21.7582
v  -12.5833 34.8143 21.7647
# 8 vertices

vn -0.0013 0.0000 -1.0000
vn 0.0013 -0.0000 1.0000
vn -0.0000 -1.0000 -0.0000
vn 1.0000 0.0000 -0.0013
vn 0.0000 1.0000 0.0000
vn -1.0000 0.0000 0.0013
# 6 vertex normals

vt 1.0000 0.0000 0.0000
vt 1.0000 1.0000 0.0000
vt 0.0000 1.0000 0.0000
vt 0.0000 0.0000 0.0000
# 4 texture coords

g Box002
s 2
f 9/5/7 10/6/7 11/7/7 
f 11/7/7 12/8/7 9/5/7 
s 4
f 13/8/8 14/5/8 15/6/8 
f 15/6/8 16/7/8 13/8/8 
s 8
f 9/8/9 12/5/9 14/6/9 
f 14/6/9 13/7/9 9/8/9 
s 16
f 12/8/10 11/5/10 15/6/10 
f 15/6/10 14/7/10 12/8/10 
s 32
f 11/8/11 10/5/11 16/6/11 
f 16/6/11 15/7/11 11/8/11 
s 64
f 10/8/12 9/5/12 13/6/12 
f 13/6/12 16/7/12 10/8/12 
# 12 faces

#
# object Box003
#

v  12.6631 24.9395 18.7319
v  12.6631 34.9395 18.7319
v  7.6631 34.9395 18.7384
v  7.6631 24.9395 18.7384
v  12.6670 24.9395 21.7319
v  7.6670 24.9395 21.7384
v  7.6670 34.9395 21.7384
v  12.6670 34.9395 21.7319
# 8 vertices

vn -0.0013 0.0000 -1.0000
vn 0.0013 -0.0000 1.0000
vn -0.0000 -1.0000 -0.0000
vn -1.0000 0.0000 0.0013
vn 0.0000 1.0000 0.0000
vn 1.0000 0.0000 -0.0013
# 6 vertex normals

vt 1.0000 0.0000 0.0000
vt 1.0000 1.0000 0.0000
vt 0.0000 1.0000 0.0000
vt 0.0000 0.0000 0.0000
# 4 texture coords

g Box003
s 2
f 19/11/13 18/10/13 17/9/13 
f 17/9/13 20/12/13 19/11/13 
s 4
f 23/10/14 22/9/14 21/12/14 
f 21/12/14 24/11/14 23/10/14 
s 8
f 22/10/15 20/9/15 17/12/15 
f 17/12/15 21/11/15 22/10/15 
s 16
f 23/10/16 19/9/16 20/12/16 
f 20/12/16 22/11/16 23/10/16 
s 32
f 24/10/17 18/9/17 19/12/17 
f 19/12/17 23/11/17 24/10/17 
s 64
f 21/10/18 17/9/18 18/12/18 
f 18/12/18 24/11/18 21/10/18 
# 12 faces

#
# object Box004
#

v  -7.4742 8.2901 18.7581
v  -7.4742 11.2901 18.7581
v  7.5258 11.2901 18.7385
v  7.5258 8.2901 18.7385
v  -7.4703 8.2901 21.7581
v  7.5297 8.2901 21.7385
v  7.5297 11.2901 21.7385
v  -7.4703 11.2901 21.7581
# 8 vertices

vn -0.0013 0.0000 -1.0000
vn 0.0013 -0.0000 1.0000
vn -0.0000 -1.0000 -0.0000
vn 1.0000 0.0000 -0.0013
vn 0.0000 1.0000 0.0000
vn -1.0000 -0.0000 0.0013
# 6 vertex normals

vt 1.0000 0.0000 0.0000
vt 1.0000 1.0000 0.0000
vt 0.0000 1.0000 0.0000
vt 0.0000 0.0000 0.0000
# 4 texture coords

g Box004
s 2
f 25/13/19 26/14/19 27/15/19 
f 27/15/19 28/16/19 25/13/19 
s 4
f 29/16/20 30/13/20 31/14/20 
f 31/14/20 32/15/20 29/16/20 
s 8
f 25/16/21 28/13/21 30/14/21 
f 30/14/21 29/15/21 25/16/21 
s 16
f 28/16/22 27/13/22 31/14/22 
f 31/14/22 30/15/22 28/16/22 
s 32
f 27/16/23 26/13/23 32/14/23 
f 32/14/23 31/15/23 27/16/23 
s 64
f 26/16/24 25/13/24 29/14/24 
f 29/14/24 32/15/24 26/16/24 
# 12 faces

