# 3ds Max Wavefront OBJ Exporter v0.97b - (c)2007 guruware
# File Created: 11.06.2016 16:25:36

#
# object Box001
#

v  -25.0000 0.0000 25.0000
v  25.0000 0.0000 25.0000
v  25.0000 10.0000 25.0000
v  -25.0000 10.0000 25.0000
v  25.0000 0.0000 -25.0000
v  25.0000 10.0000 -25.0000
v  -25.0000 0.0000 -25.0000
v  -25.0000 10.0000 -25.0000
v  -22.5000 15.3294 -22.5000
v  22.5000 15.3294 -22.5000
v  22.5000 10.0000 -22.5000
v  -22.5000 10.0000 -22.5000
v  22.5000 15.3294 22.5000
v  22.5000 10.0000 22.5000
v  -22.5000 15.3294 22.5000
v  -22.5000 10.0000 22.5000
v  20.0000 20.7638 20.0000
v  -20.0000 20.7638 20.0000
v  -20.0000 15.3294 20.0000
v  20.0000 15.3294 20.0000
v  -20.0000 20.7638 -20.0000
v  -20.0000 15.3294 -20.0000
v  20.0000 20.7638 -20.0000
v  20.0000 15.3294 -20.0000
v  18.5000 0.0000 18.5000
v  18.5000 -0.0000 1.5000
v  17.0000 98.3668 17.0000
v  3.0000 98.3668 17.0000
v  3.0000 29.8558 17.0000
v  17.0000 29.8558 17.0000
v  3.0000 29.8558 3.0000
v  3.0000 88.4715 3.0000
v  15.0000 88.4715 3.0000
v  17.0000 29.8558 3.0000
v  18.5000 -0.1442 18.5000
v  1.5000 -0.1442 18.5000
v  1.5000 -0.1442 1.5000
v  18.5000 -0.1442 1.5000
v  1.5000 0.0000 18.5000
v  1.5000 -0.0000 1.5000
v  1.5000 29.8558 18.5000
v  18.5000 29.8558 18.5000
v  1.5000 29.8558 1.5000
v  18.5000 29.8558 1.5000
v  1.5000 20.7638 1.5000
v  1.5000 20.7638 18.5000
v  18.5000 20.7638 18.5000
v  18.5000 20.7638 1.5000
v  -18.5000 20.7638 18.5000
v  -18.5000 20.7638 1.5000
v  -3.0000 30.9633 17.0000
v  -3.0000 98.3668 17.0000
v  -17.0000 98.3668 17.0000
v  -17.0000 30.9633 17.0000
v  -1.5000 30.9633 18.5000
v  -18.5000 30.9633 18.5000
v  -1.5000 20.7638 18.5000
v  -1.5000 20.7638 1.5000
v  -1.5000 30.9633 1.5000
v  -18.5000 30.9633 1.5000
v  -17.0000 30.9633 3.0000
v  -3.0000 30.9633 3.0000
v  1.5000 -0.0000 -1.5000
v  -1.5000 -0.0000 -1.5000
v  -1.5000 -0.0000 -18.5000
v  1.5000 0.0000 -18.5000
v  3.0000 29.8558 -17.0000
v  3.0000 98.3668 -17.0000
v  17.0000 98.3668 -17.0000
v  17.0000 29.8558 -17.0000
v  1.5000 -0.1442 -1.5000
v  1.5000 -0.1442 -18.5000
v  18.5000 -0.1442 -18.5000
v  18.5000 -0.1442 -1.5000
v  18.5000 29.8558 -1.5000
v  1.5000 29.8558 -1.5000
v  1.5000 20.7638 -1.5000
v  18.5000 20.7638 -1.5000
v  18.5000 20.7638 -18.5000
v  18.5000 29.8558 -18.5000
v  1.5000 29.8558 -18.5000
v  1.5000 20.7638 -18.5000
v  3.0000 29.8558 -3.0000
v  17.0000 29.8558 -3.0000
v  18.5000 -0.0000 -18.5000
v  18.5000 -0.0000 -1.5000
v  -1.5000 20.7638 -1.5000
v  -18.5000 20.7638 -1.5000
v  -18.5000 20.7638 -18.5000
v  -1.5000 20.7638 -18.5000
v  -18.5000 0.0000 -1.5000
v  -18.5000 -0.0000 -18.5000
v  -3.0000 29.8558 -3.0000
v  -3.0000 88.4715 -3.0000
v  -15.0000 88.4715 -3.0000
v  -17.0000 29.8558 -3.0000
v  -17.0000 98.3668 -17.0000
v  -3.0000 98.3668 -17.0000
v  -3.0000 29.8558 -17.0000
v  -17.0000 29.8558 -17.0000
v  -1.5000 -0.1442 -1.5000
v  -18.5000 -0.1442 -1.5000
v  -18.5000 -0.1442 -18.5000
v  -1.5000 -0.1442 -18.5000
v  -18.5000 29.8558 -1.5000
v  -1.5000 29.8558 -1.5000
v  -18.5000 29.8558 -18.5000
v  -1.5000 29.8558 -18.5000
v  17.0000 98.3668 3.0000
v  3.0000 88.4715 15.0000
v  3.0000 98.3668 15.0000
v  -3.0000 88.4715 15.0000
v  -3.0000 88.4715 3.0000
v  -17.0000 98.3668 3.0000
v  17.0000 98.3668 -3.0000
v  3.0000 88.4715 -15.0000
v  3.0000 88.4715 -3.0000
v  -3.0000 88.4715 -15.0000
v  -3.0000 98.3668 -15.0000
v  -17.0000 98.3668 -3.0000
v  -15.0000 98.3668 15.0000
v  -3.0000 98.3668 15.0000
v  3.0000 98.3668 -15.0000
v  15.0000 98.3668 -15.0000
v  -15.0000 98.3668 -15.0000
v  -15.0000 98.3668 -3.0000
v  -15.0000 88.4715 3.0000
v  -15.0000 98.3668 3.0000
v  15.0000 88.4715 -3.0000
v  15.0000 98.3668 -3.0000
v  15.0000 98.3668 15.0000
v  15.0000 98.3668 3.0000
v  -15.0000 108.4715 15.0000
v  -15.0000 108.4715 -15.0000
v  15.0000 108.4715 15.0000
v  15.0000 108.4715 -15.0000
v  -10.0000 108.4715 10.0000
v  -10.0000 108.4715 -10.0000
v  10.0000 130.7759 10.0000
v  -10.0000 130.7759 10.0000
v  10.0000 108.4715 10.0000
v  10.0000 130.7759 -10.0000
v  10.0000 108.4715 -10.0000
v  -10.0000 130.7759 -10.0000
v  7.5000 163.5712 7.5000
v  -7.5000 163.5712 7.5000
v  -7.5000 130.7759 7.5000
v  7.5000 130.7759 7.5000
v  -7.5000 163.5712 -7.5000
v  -7.5000 130.7759 -7.5000
v  7.5000 163.5712 -7.5000
v  7.5000 130.7759 -7.5000
v  5.0000 163.5712 -5.0000
v  -5.0000 163.5712 5.0000
v  -5.0000 163.5712 -5.0000
v  5.0000 168.3359 5.0000
v  -5.0000 168.3359 5.0000
v  5.0000 163.5712 5.0000
v  5.0000 168.3359 -5.0000
v  -5.0000 168.3359 -5.0000
# 160 vertices

vn 0.0000 0.0000 1.0000
vn 1.0000 0.0000 -0.0000
vn 0.0000 0.0000 -1.0000
vn -1.0000 0.0000 -0.0000
vn 0.0000 -0.0000 -1.0000
vn 1.0000 -0.0000 0.0000
vn 1.0000 0.0000 0.0000
vn -0.0000 0.0000 1.0000
vn 0.0000 1.0000 -0.0000
vn 0.0000 1.0000 0.0000
vn -0.0000 1.0000 0.0000
vn 0.0000 -1.0000 -0.0000
vn -0.0000 -1.0000 -0.0000
vn -0.0000 -1.0000 0.0000
vn 0.0000 -1.0000 0.0000
vn -0.0000 -0.0000 -1.0000
vn -0.0000 0.0000 -1.0000
vn -0.0000 1.0000 -0.0000
vn -0.0000 -0.0000 1.0000
vn 0.0000 -0.0000 1.0000
vn -1.0000 -0.0000 -0.0000
vn -1.0000 -0.0000 0.0000
vn -1.0000 0.0000 0.0000
# 23 vertex normals

vt 0.0000 0.0000 0.0000
vt 1.0000 0.0000 0.0000
vt 1.0000 1.0000 0.0000
vt 0.0000 1.0000 0.0000
vt 1.0000 0.6447 0.0000
vt 0.0000 0.6447 0.0000
vt 0.0500 0.9500 0.0000
vt 0.9500 0.9500 0.0000
vt 0.9500 0.0500 0.0000
vt 0.0500 0.0500 0.0000
vt 1.0000 0.7283 0.0000
vt 0.0000 0.7283 0.0000
vt 0.9444 0.9444 0.0000
vt 0.0556 0.9444 0.0000
vt 0.0556 0.0556 0.0000
vt 0.9444 0.0556 0.0000
vt 0.1300 0.1300 0.0000
vt 0.1300 0.4700 0.0000
vt 1.0000 0.6558 0.0000
vt 0.0000 0.6558 0.0000
vt 0.0000 0.1990 0.0000
vt 1.0000 0.1990 0.0000
vt 1.0000 0.5898 0.0000
vt 0.1429 0.5898 0.0000
vt 0.0000 0.0048 0.0000
vt 1.0000 0.0048 0.0000
vt 0.0882 0.0882 0.0000
vt 0.9118 0.0882 0.0000
vt 0.9118 0.9118 0.0000
vt 0.0882 0.9118 0.0000
vt 1.0000 0.6969 0.0000
vt 0.0000 0.6969 0.0000
vt 0.4700 0.1300 0.0000
vt 0.0375 0.0375 0.0000
vt 0.4625 0.0375 0.0000
vt 0.9625 0.0375 0.0000
vt 0.9625 0.4625 0.0000
vt 0.0000 0.6484 0.0000
vt 1.0000 0.6484 0.0000
vt 0.0000 0.6600 0.0000
vt 1.0000 0.6600 0.0000
vt 0.0375 0.4625 0.0000
vt 0.5375 0.0375 0.0000
vt 0.4625 0.4625 0.0000
vt 0.5375 0.4625 0.0000
vt 0.4700 0.5300 0.0000
vt 0.4700 0.4700 0.0000
vt 0.5300 0.5300 0.0000
vt 0.5300 0.8700 0.0000
vt 0.4700 0.8700 0.0000
vt 0.5375 0.5375 0.0000
vt 0.9625 0.5375 0.0000
vt 0.0375 0.5375 0.0000
vt 0.0375 0.9625 0.0000
vt 0.4625 0.5375 0.0000
vt 0.1300 0.5300 0.0000
vt 0.1300 0.8700 0.0000
vt 0.9625 0.9625 0.0000
vt 0.5375 0.9625 0.0000
vt 0.4625 0.9625 0.0000
vt 0.8700 0.5300 0.0000
vt 0.8700 0.8700 0.0000
vt 0.8571 0.5898 0.0000
vt 0.8571 0.6558 0.0000
vt 0.8571 0.5824 0.0000
vt 0.0000 0.5824 0.0000
vt 0.0000 0.5898 0.0000
vt 0.7220 0.3560 0.0000
vt 0.7464 0.3304 0.0000
vt 0.5756 0.3304 0.0000
vt 0.5756 0.3560 0.0000
vt 0.5024 0.7656 0.0000
vt 0.5024 0.7400 0.0000
vt 0.3559 0.7400 0.0000
vt 0.3315 0.7656 0.0000
vt 0.7220 0.7400 0.0000
vt 0.7464 0.7656 0.0000
vt 0.7464 0.5864 0.0000
vt 0.7220 0.5864 0.0000
vt 0.1429 0.5824 0.0000
vt 0.1429 0.6484 0.0000
vt 0.1429 0.6558 0.0000
vt 0.3559 0.3560 0.0000
vt 0.3315 0.3304 0.0000
vt 0.3315 0.5096 0.0000
vt 0.3559 0.5096 0.0000
vt 0.6000 0.4948 0.0000
vt 0.6000 0.0000 0.0000
vt 0.4000 0.0000 0.0000
vt 0.4000 0.4948 0.0000
vt 0.0000 0.4948 0.0000
vt 1.0000 0.4948 0.0000
vt 0.4000 1.0000 0.0000
vt 0.6000 1.0000 0.0000
vt 0.6000 0.6000 0.0000
vt 0.4000 0.6000 0.0000
vt 0.8571 0.6484 0.0000
vt 0.7464 0.5096 0.0000
vt 0.7220 0.5096 0.0000
vt 0.3315 0.5864 0.0000
vt 0.3559 0.5864 0.0000
vt 0.5756 0.7656 0.0000
vt 0.5756 0.7400 0.0000
vt 1.0000 0.5824 0.0000
vt 0.5024 0.3560 0.0000
vt 0.5024 0.3304 0.0000
vt 0.0000 0.6000 0.0000
vt 0.4000 0.4000 0.0000
vt 0.0000 0.4000 0.0000
vt 1.0000 0.6000 0.0000
vt 1.0000 0.4000 0.0000
vt 0.6000 0.4000 0.0000
vt 0.8333 0.1667 0.0000
vt 0.8333 0.8333 0.0000
vt 0.0000 0.4424 0.0000
vt 1.0000 0.4424 0.0000
vt 0.1667 0.1667 0.0000
vt 0.1667 0.8333 0.0000
vt 1.0000 0.5315 0.0000
vt 0.0000 0.5315 0.0000
vt 0.8750 0.1250 0.0000
vt 0.1250 0.1250 0.0000
vt 0.1250 0.8750 0.0000
vt 0.8750 0.8750 0.0000
vt 1.0000 0.6577 0.0000
vt 0.0000 0.6577 0.0000
vt 0.0000 0.6100 0.0000
vt 1.0000 0.6100 0.0000
vt 0.5705 0.2738 0.0000
vt 0.2679 0.2738 0.0000
vt 0.2679 0.7098 0.0000
vt 0.5705 0.7098 0.0000
# 132 texture coords

g Box001
f 1/1/1 2/2/1 3/3/1 
f 3/3/1 4/4/1 1/1/1 
f 2/1/2 5/2/2 6/3/2 
f 6/3/2 3/4/2 2/1/2 
f 5/1/3 7/2/3 8/3/3 
f 8/3/3 6/4/3 5/1/3 
f 7/1/4 1/2/4 4/3/4 
f 4/3/4 8/4/4 7/1/4 
f 9/4/5 10/3/5 11/5/5 
f 11/5/5 12/6/3 9/4/5 
f 11/6/6 10/4/6 13/3/6 
f 13/3/6 14/5/7 11/6/6 
f 14/6/8 13/4/8 15/3/8 
f 15/3/8 16/5/8 14/6/8 
f 12/5/4 16/6/4 15/4/4 
f 15/4/4 9/3/4 12/5/4 
f 6/3/9 8/4/9 12/7/9 
f 12/7/9 11/8/9 6/3/9 
f 3/2/9 6/3/9 11/8/9 
f 11/8/9 14/9/9 3/2/9 
f 4/1/9 3/2/9 14/9/9 
f 14/9/9 16/10/9 4/1/9 
f 17/4/1 18/3/1 19/11/1 
f 19/11/1 20/12/1 17/4/1 
f 19/12/4 18/4/4 21/3/4 
f 21/3/4 22/11/4 19/12/4 
f 22/12/5 21/4/5 23/3/5 
f 23/3/5 24/11/5 22/12/5 
f 20/11/2 24/12/2 23/4/2 
f 23/4/2 17/3/2 20/11/2 
f 12/7/9 8/4/9 4/1/9 
f 4/1/9 16/10/9 12/7/9 
f 15/4/10 13/3/11 20/13/11 
f 20/13/11 19/14/10 15/4/10 
f 9/1/11 15/4/10 19/14/10 
f 19/14/10 22/15/11 9/1/11 
f 10/2/10 9/1/11 22/15/11 
f 22/15/11 24/16/10 10/2/10 
f 5/4/12 2/1/13 25/17/14 
f 25/17/14 26/18/15 5/4/12 
f 27/19/1 28/20/1 29/21/1 
f 29/21/1 30/22/1 27/19/1 
f 31/22/16 32/23/17 33/24/3 
f 33/24/3 34/21/5 31/22/16 
f 35/2/15 36/1/15 37/4/15 
f 37/4/15 38/3/15 35/2/15 
f 25/25/1 39/26/1 36/2/1 
f 36/2/1 35/1/1 25/25/1 
f 39/25/4 40/26/4 37/2/4 
f 37/2/4 36/1/4 39/25/4 
f 40/25/3 26/26/3 38/2/3 
f 38/2/3 37/1/3 40/25/3 
f 25/26/2 35/2/2 38/1/2 
f 38/1/2 26/25/2 25/26/2 
f 30/27/9 29/28/9 41/2/9 
f 41/2/9 42/1/9 30/27/9 
f 43/3/9 41/2/9 29/28/9 
f 29/28/9 31/29/9 43/3/9 
f 44/4/9 43/3/9 31/29/9 
f 31/29/9 34/30/9 44/4/9 
f 41/4/4 43/3/4 45/31/4 
f 45/31/4 46/32/4 41/4/4 
f 46/31/1 47/32/1 42/4/1 
f 42/4/1 41/3/1 46/31/1 
f 44/4/2 42/3/2 47/31/2 
f 47/31/2 48/32/2 44/4/2 
f 45/32/5 43/4/5 44/3/5 
f 44/3/5 48/31/5 45/32/5 
f 20/13/11 13/3/11 10/2/10 
f 10/2/10 24/16/10 20/13/11 
f 39/33/13 25/17/14 2/1/13 
f 2/1/13 1/2/12 39/33/13 
f 17/1/18 47/34/18 46/35/9 
f 46/35/9 18/2/18 17/1/18 
f 30/27/9 42/1/9 44/4/9 
f 44/4/9 34/30/9 30/27/9 
f 21/3/10 18/2/18 49/36/18 
f 49/36/18 50/37/9 21/3/10 
f 51/21/1 52/38/1 53/39/1 
f 53/39/1 54/22/1 51/21/1 
f 55/3/1 56/4/1 49/40/1 
f 49/40/1 57/41/1 55/3/1 
f 57/40/2 58/41/2 59/3/2 
f 59/3/2 55/4/2 57/40/2 
f 60/3/5 59/4/5 58/40/5 
f 58/40/5 50/41/5 60/3/5 
f 49/41/4 56/3/4 60/4/4 
f 60/4/4 50/40/4 49/41/4 
f 54/27/9 61/30/9 60/4/9 
f 60/4/9 56/1/9 54/27/9 
f 59/3/9 62/29/9 51/28/9 
f 51/28/9 55/2/9 59/3/9 
f 54/27/9 56/1/9 55/2/9 
f 55/2/9 51/28/9 54/27/9 
f 47/34/18 17/1/18 23/4/18 
f 23/4/18 48/42/9 47/34/18 
f 57/43/10 46/35/9 45/44/9 
f 45/44/9 58/45/9 57/43/10 
f 18/2/18 46/35/9 57/43/10 
f 57/43/10 49/36/18 18/2/18 
f 60/4/9 61/30/9 62/29/9 
f 62/29/9 59/3/9 60/4/9 
f 63/46/14 40/47/14 64/48/14 
f 63/46/14 64/48/14 65/49/12 
f 63/46/14 65/49/12 66/50/12 
f 67/21/5 68/20/5 69/19/5 
f 69/19/5 70/22/5 67/21/5 
f 71/2/15 72/3/15 73/4/15 
f 73/4/15 74/1/15 71/2/15 
f 75/3/1 76/4/1 77/32/1 
f 77/32/1 78/31/1 75/3/1 
f 78/32/2 79/31/2 80/3/2 
f 80/3/2 75/4/2 78/32/2 
f 81/3/5 80/4/5 79/32/5 
f 79/32/5 82/31/5 81/3/5 
f 77/31/4 76/3/4 81/4/4 
f 81/4/4 82/32/4 77/31/4 
f 83/27/9 67/30/9 81/4/9 
f 81/4/9 76/1/9 83/27/9 
f 80/3/9 70/29/9 84/28/9 
f 84/28/9 75/2/9 80/3/9 
f 83/27/9 76/1/9 75/2/9 
f 75/2/9 84/28/9 83/27/9 
f 74/1/2 73/2/2 85/26/2 
f 85/26/2 86/25/2 74/1/2 
f 86/26/1 63/25/1 71/1/1 
f 71/1/1 74/2/1 86/26/1 
f 72/1/4 71/2/4 63/26/4 
f 63/26/4 66/25/4 72/1/4 
f 85/25/3 73/1/3 72/2/3 
f 72/2/3 66/26/3 85/25/3 
f 58/45/9 45/44/9 87/51/18 
f 58/45/9 87/51/18 88/52/18 
f 50/37/9 58/45/9 88/52/18 
f 78/53/9 48/42/9 23/4/18 
f 23/4/18 79/54/18 78/53/9 
f 48/42/9 78/53/9 77/55/18 
f 77/55/18 45/44/9 48/42/9 
f 40/47/14 63/46/14 86/56/15 
f 86/56/15 26/18/15 40/47/14 
f 5/4/12 26/18/15 86/56/15 
f 86/56/15 85/57/13 5/4/12 
f 81/4/9 67/30/9 70/29/9 
f 70/29/9 80/3/9 81/4/9 
f 21/3/10 89/58/10 90/59/18 
f 21/3/10 90/59/18 82/60/9 
f 21/3/10 82/60/9 79/54/18 
f 21/3/10 79/54/18 23/4/18 
f 91/61/15 1/2/12 7/3/13 
f 7/3/13 92/62/14 91/61/15 
f 93/22/8 94/23/19 95/24/20 
f 95/24/20 96/21/1 93/22/8 
f 97/19/3 98/20/3 99/21/3 
f 99/21/3 100/22/3 97/19/3 
f 101/2/15 102/1/15 103/4/15 
f 103/4/15 104/3/15 101/2/15 
f 64/25/19 91/26/8 102/2/19 
f 102/2/19 101/1/20 64/25/19 
f 91/25/4 92/26/4 103/2/4 
f 103/2/4 102/1/4 91/25/4 
f 64/26/6 101/2/6 104/1/6 
f 104/1/6 65/25/6 64/26/6 
f 93/27/9 96/28/9 105/2/9 
f 105/2/9 106/1/9 93/27/9 
f 107/3/9 105/2/9 96/28/9 
f 96/28/9 100/29/9 107/3/9 
f 108/4/9 107/3/9 100/29/9 
f 100/29/9 99/30/9 108/4/9 
f 105/4/4 107/3/4 89/31/4 
f 89/31/4 88/32/4 105/4/4 
f 88/31/1 87/32/1 106/4/1 
f 106/4/1 105/3/1 88/31/1 
f 92/25/3 65/26/3 104/2/3 
f 104/2/3 103/1/3 92/25/3 
f 89/32/3 107/4/3 108/3/3 
f 108/3/3 90/31/3 89/32/3 
f 87/31/2 90/32/2 108/4/2 
f 108/4/2 106/3/2 87/31/2 
f 65/49/12 92/62/14 7/3/13 
f 7/3/13 5/4/12 85/57/13 
f 7/3/13 85/57/13 66/50/12 
f 65/49/12 7/3/13 66/50/12 
f 21/3/10 50/37/9 88/52/18 
f 88/52/18 89/58/10 21/3/10 
f 87/51/18 45/44/9 77/55/18 
f 90/59/18 87/51/18 77/55/18 
f 90/59/18 77/55/18 82/60/9 
f 64/48/14 40/47/14 39/33/13 
f 91/61/15 64/48/14 39/33/13 
f 91/61/15 39/33/13 1/2/12 
f 93/27/9 106/1/9 108/4/9 
f 108/4/9 99/30/9 93/27/9 
f 30/21/2 34/22/2 109/19/2 
f 109/19/2 27/20/2 30/21/2 
f 110/63/21 29/22/4 28/19/21 
f 28/19/21 111/64/21 110/63/21 
f 112/65/6 51/22/2 62/21/6 
f 62/21/6 113/66/6 112/65/6 
f 61/22/4 54/21/4 53/38/4 
f 53/38/4 114/39/4 61/22/4 
f 115/19/2 84/22/2 70/21/2 
f 70/21/2 69/20/2 115/19/2 
f 116/63/22 67/22/23 83/21/4 
f 83/21/4 117/67/21 116/63/22 
f 118/63/7 99/22/2 98/19/2 
f 98/19/2 119/64/2 118/63/7 
f 120/19/4 97/20/4 100/21/4 
f 100/21/4 96/22/4 120/19/4 
f 121/68/9 53/69/9 52/70/9 
f 52/70/9 122/71/9 121/68/9 
f 68/72/9 123/73/9 124/74/9 
f 124/74/9 69/75/9 68/72/9 
f 125/76/18 97/77/9 120/78/9 
f 120/78/9 126/79/9 125/76/18 
f 127/80/16 61/21/16 114/38/16 
f 114/38/16 128/81/5 127/80/16 
f 129/24/8 84/21/8 115/20/8 
f 115/20/8 130/82/1 129/24/8 
f 131/83/9 27/84/9 109/85/9 
f 109/85/9 132/86/9 131/83/9 
f 123/87/5 116/88/3 118/89/5 
f 118/89/5 119/90/3 123/87/5 
f 129/89/2 130/90/2 132/87/2 
f 132/87/2 33/88/2 129/89/2 
f 128/90/4 121/91/4 133/4/4 
f 128/90/4 133/4/4 134/3/4 
f 126/87/4 128/90/4 134/3/4 
f 126/87/4 134/3/4 125/92/4 
f 118/93/12 116/94/12 117/95/12 
f 117/95/12 94/96/12 118/93/12 
f 111/90/1 131/91/1 135/4/1 
f 111/90/1 135/4/1 133/3/1 
f 122/87/1 111/90/1 133/3/1 
f 122/87/1 133/3/1 121/92/1 
f 109/20/3 34/21/5 33/24/3 
f 33/24/3 132/82/3 109/20/3 
f 120/20/20 96/21/1 95/24/20 
f 95/24/20 126/82/20 120/20/20 
f 31/21/23 29/22/4 110/63/21 
f 110/63/21 32/67/23 31/21/23 
f 52/39/2 51/22/2 112/65/6 
f 112/65/6 122/97/2 52/39/2 
f 68/19/22 67/22/23 116/63/22 
f 116/63/22 123/64/21 68/19/22 
f 93/21/7 99/22/2 118/63/7 
f 118/63/7 94/67/7 93/21/7 
f 114/98/9 53/69/9 121/68/9 
f 121/68/9 128/99/9 114/98/9 
f 115/100/9 69/75/9 124/74/9 
f 124/74/9 130/101/9 115/100/9 
f 98/102/18 97/77/9 125/76/18 
f 125/76/18 119/103/18 98/102/18 
f 62/22/5 61/21/16 127/80/16 
f 127/80/16 113/104/5 62/22/5 
f 83/22/1 84/21/8 129/24/8 
f 129/24/8 117/23/1 83/22/1 
f 111/105/9 28/106/9 27/84/9 
f 27/84/9 131/83/9 111/105/9 
f 136/3/16 124/92/16 123/87/5 
f 134/4/5 136/3/16 123/87/5 
f 119/90/3 134/4/5 123/87/5 
f 119/90/3 125/91/5 134/4/5 
f 130/90/2 124/91/2 136/4/2 
f 135/3/2 131/92/2 132/87/2 
f 136/4/2 135/3/2 132/87/2 
f 130/90/2 136/4/2 132/87/2 
f 126/87/4 95/88/4 127/89/4 
f 127/89/4 128/90/4 126/87/4 
f 95/107/12 94/96/12 113/108/12 
f 113/108/12 127/109/12 95/107/12 
f 117/95/12 129/110/12 33/111/12 
f 117/95/12 33/111/12 32/112/12 
f 117/95/12 32/112/12 94/96/12 
f 32/112/12 110/88/12 112/89/12 
f 32/112/12 112/89/12 113/108/12 
f 32/112/12 113/108/12 94/96/12 
f 122/87/1 112/88/1 110/89/1 
f 110/89/1 111/90/1 122/87/1 
f 134/3/10 133/2/9 137/113/9 
f 137/113/9 138/114/10 134/3/10 
f 139/3/1 140/4/1 137/115/1 
f 137/115/1 141/116/1 139/3/1 
f 142/3/2 139/4/2 141/115/2 
f 141/115/2 143/116/2 142/3/2 
f 144/3/3 142/4/3 143/115/3 
f 143/115/3 138/116/3 144/3/3 
f 140/3/4 144/4/4 138/115/4 
f 138/115/4 137/116/4 140/3/4 
f 141/117/18 135/1/18 136/4/11 
f 136/4/11 143/118/11 141/117/18 
f 141/117/18 137/113/9 133/2/9 
f 133/2/9 135/1/18 141/117/18 
f 145/4/1 146/3/1 147/119/1 
f 147/119/1 148/120/1 145/4/1 
f 147/120/4 146/4/4 149/3/4 
f 149/3/4 150/119/4 147/120/4 
f 150/120/5 149/4/5 151/3/5 
f 151/3/5 152/119/5 150/120/5 
f 148/119/2 152/120/2 151/4/2 
f 151/4/2 145/3/2 148/119/2 
f 143/118/11 136/4/11 134/3/10 
f 134/3/10 138/114/10 143/118/11 
f 139/2/9 148/121/9 147/122/9 
f 147/122/9 140/1/9 139/2/9 
f 144/4/9 140/1/9 147/122/9 
f 147/122/9 150/123/9 144/4/9 
f 142/3/9 144/4/9 150/123/9 
f 150/123/9 152/124/9 142/3/9 
f 153/118/9 151/4/9 149/3/9 
f 149/3/9 146/2/9 154/113/9 
f 149/3/9 154/113/9 155/114/9 
f 153/118/9 149/3/9 155/114/9 
f 156/125/1 157/126/1 154/127/1 
f 154/127/1 158/128/1 156/125/1 
f 156/126/2 158/127/2 153/128/2 
f 153/128/2 159/125/2 156/126/2 
f 159/126/3 153/127/3 155/128/3 
f 155/128/3 160/125/3 159/126/3 
f 157/125/4 160/126/4 155/127/4 
f 155/127/4 154/128/4 157/125/4 
f 148/121/9 139/2/9 142/3/9 
f 142/3/9 152/124/9 148/121/9 
f 158/117/9 145/1/9 151/4/9 
f 151/4/9 153/118/9 158/117/9 
f 158/117/9 154/113/9 146/2/9 
f 146/2/9 145/1/9 158/117/9 
f 156/129/9 159/130/9 160/131/9 
f 160/131/9 157/132/9 156/129/9 
# 328 faces

#
# object Box006
#

v  1.5000 163.9281 1.5000
v  1.5000 163.9281 -1.5000
v  -1.5000 163.9281 -1.5000
v  -1.5000 163.9281 1.5000
v  1.5000 223.9281 1.5000
v  -1.5000 223.9281 1.5000
v  -1.5000 223.9281 -1.5000
v  1.5000 223.9281 -1.5000
# 8 vertices

vn 0.0000 -1.0000 -0.0000
vn 0.0000 1.0000 -0.0000
vn 0.0000 0.0000 1.0000
vn -1.0000 0.0000 -0.0000
vn 0.0000 0.0000 -1.0000
vn 1.0000 0.0000 -0.0000
# 6 vertex normals

vt 1.0000 0.0000 0.0000
vt 1.0000 1.0000 0.0000
vt 0.0000 1.0000 0.0000
vt 0.0000 0.0000 0.0000
# 4 texture coords

g Box006
f 163/135/24 162/134/24 161/133/24 
f 161/133/24 164/136/24 163/135/24 
f 167/134/25 166/133/25 165/136/25 
f 165/136/25 168/135/25 167/134/25 
f 166/134/26 164/133/26 161/136/26 
f 161/136/26 165/135/26 166/134/26 
f 167/134/27 163/133/27 164/136/27 
f 164/136/27 166/135/27 167/134/27 
f 168/134/28 162/133/28 163/136/28 
f 163/136/28 167/135/28 168/134/28 
f 165/134/29 161/133/29 162/136/29 
f 162/136/29 168/135/29 165/134/29 
# 12 faces

