# 3ds Max Wavefront OBJ Exporter v0.97b - (c)2007 guruware
# File Created: 02.07.2016 20:41:36

#
# object Box001
#

v  -20.0000 0.0000 20.0000
v  20.0000 0.0000 20.0000
v  20.0000 3.1821 20.0000
v  -20.0000 3.1821 20.0000
v  20.0000 0.0000 -20.0000
v  20.0000 3.1821 -20.0000
v  -20.0000 0.0000 -20.0000
v  -20.0000 3.1821 -20.0000
v  -17.5000 3.1821 17.5000
v  -17.5000 3.1821 -17.5000
v  17.5000 3.1821 17.5000
v  17.5000 3.1821 -17.5000
v  17.5000 0.0000 -17.5000
v  -17.5000 0.0000 -17.5000
v  17.5000 0.0000 17.5000
v  -17.5000 0.0000 17.5000
# 16 vertices

vn 0.0000 0.0000 1.0000
vn 1.0000 0.0000 -0.0000
vn 0.0000 0.0000 -1.0000
vn -1.0000 0.0000 -0.0000
vn 0.0000 1.0000 -0.0000
vn 0.0000 -1.0000 -0.0000
# 6 vertex normals

vt 0.0000 0.0000 0.0000
vt 1.0000 0.0000 0.0000
vt 1.0000 1.0000 0.0000
vt 0.0000 1.0000 0.0000
vt 0.0625 0.0625 0.0000
vt 0.0625 0.9375 0.0000
vt 0.9375 0.0625 0.0000
vt 0.9375 0.9375 0.0000
vt 0.0000 0.3333 0.0000
vt 1.0000 0.3333 0.0000
# 10 texture coords

g Box001
f 1/1/1 2/2/1 3/3/1 
f 3/3/1 4/4/1 1/1/1 
f 2/1/2 5/2/2 6/3/2 
f 6/3/2 3/4/2 2/1/2 
f 5/1/3 7/2/3 8/3/3 
f 8/3/3 6/4/3 5/1/3 
f 7/1/4 1/2/4 4/3/4 
f 4/3/4 8/4/4 7/1/4 
f 9/5/5 10/6/5 8/4/5 
f 9/5/5 8/4/5 4/1/5 
f 9/5/5 4/1/5 3/2/5 
f 11/7/5 9/5/5 3/2/5 
f 11/7/5 3/2/5 6/3/5 
f 12/8/5 11/7/5 6/3/5 
f 12/8/5 6/3/5 8/4/5 
f 12/8/5 8/4/5 10/6/5 
f 13/6/6 14/8/6 7/3/6 
f 13/6/6 7/3/6 5/4/6 
f 15/5/6 13/6/6 5/4/6 
f 15/5/6 5/4/6 2/1/6 
f 16/7/6 15/5/6 2/1/6 
f 16/7/6 2/1/6 1/2/6 
f 16/7/6 1/2/6 7/3/6 
f 16/7/6 7/3/6 14/8/6 
f 14/1/2 10/9/2 9/10/2 
f 9/10/2 16/2/2 14/1/2 
f 16/1/3 9/9/3 11/10/3 
f 11/10/3 15/2/3 16/1/3 
f 13/2/4 15/1/4 11/9/4 
f 11/9/4 12/10/4 13/2/4 
f 14/2/1 13/1/1 12/9/1 
f 12/9/1 10/10/1 14/2/1 
# 32 faces

#
# object Box002
#

v  20.0000 7.5692 20.0000
v  -20.0000 7.5692 20.0000
v  -20.0000 10.7512 20.0000
v  20.0000 10.7512 20.0000
v  -20.0000 7.5692 -20.0000
v  -20.0000 10.7512 -20.0000
v  20.0000 7.5692 -20.0000
v  20.0000 10.7512 -20.0000
v  17.5000 10.7512 17.5000
v  17.5000 10.7512 -17.5000
v  -17.5000 10.7512 17.5000
v  -17.5000 10.7512 -17.5000
v  -17.5000 7.5692 -17.5000
v  17.5000 7.5692 -17.5000
v  -17.5000 7.5692 17.5000
v  17.5000 7.5692 17.5000
# 16 vertices

vn 0.0000 0.0000 1.0000
vn -1.0000 0.0000 -0.0000
vn 0.0000 0.0000 -1.0000
vn 1.0000 0.0000 -0.0000
vn 0.0000 1.0000 -0.0000
vn 0.0000 -1.0000 -0.0000
# 6 vertex normals

vt 0.0000 0.0000 0.0000
vt 1.0000 0.0000 0.0000
vt 1.0000 1.0000 0.0000
vt 0.0000 1.0000 0.0000
vt 0.0625 0.0625 0.0000
vt 0.0625 0.9375 0.0000
vt 0.9375 0.0625 0.0000
vt 0.9375 0.9375 0.0000
vt 0.0000 0.3333 0.0000
vt 1.0000 0.3333 0.0000
# 10 texture coords

g Box002
f 19/13/7 18/12/7 17/11/7 
f 17/11/7 20/14/7 19/13/7 
f 22/13/8 21/12/8 18/11/8 
f 18/11/8 19/14/8 22/13/8 
f 24/13/9 23/12/9 21/11/9 
f 21/11/9 22/14/9 24/13/9 
f 20/13/10 17/12/10 23/11/10 
f 23/11/10 24/14/10 20/13/10 
f 24/14/11 26/16/11 25/15/11 
f 20/11/11 24/14/11 25/15/11 
f 19/12/11 20/11/11 25/15/11 
f 19/12/11 25/15/11 27/17/11 
f 22/13/11 19/12/11 27/17/11 
f 22/13/11 27/17/11 28/18/11 
f 24/14/11 22/13/11 28/18/11 
f 26/16/11 24/14/11 28/18/11 
f 23/13/12 30/18/12 29/16/12 
f 21/14/12 23/13/12 29/16/12 
f 21/14/12 29/16/12 31/15/12 
f 18/11/12 21/14/12 31/15/12 
f 18/11/12 31/15/12 32/17/12 
f 17/12/12 18/11/12 32/17/12 
f 23/13/12 17/12/12 32/17/12 
f 30/18/12 23/13/12 32/17/12 
f 25/20/8 26/19/8 30/11/8 
f 30/11/8 32/12/8 25/20/8 
f 27/20/9 25/19/9 32/11/9 
f 32/11/9 31/12/9 27/20/9 
f 27/19/10 31/11/10 29/12/10 
f 29/12/10 28/20/10 27/19/10 
f 28/19/7 29/11/7 30/12/7 
f 30/12/7 26/20/7 28/19/7 
# 32 faces

#
# object Box003
#

v  17.3384 0.3139 2.0102
v  17.3384 0.3139 -1.9898
v  27.3384 0.3139 -1.9898
v  27.3384 0.3139 2.0102
v  17.3384 10.3139 2.0102
v  27.3384 10.3139 2.0102
v  27.3384 10.3139 -1.9898
v  17.3384 10.3139 -1.9898
# 8 vertices

vn 0.0000 -1.0000 -0.0000
vn 0.0000 1.0000 -0.0000
vn 0.0000 0.0000 1.0000
vn 1.0000 0.0000 -0.0000
vn 0.0000 0.0000 -1.0000
vn -1.0000 0.0000 -0.0000
# 6 vertex normals

vt 1.0000 0.0000 0.0000
vt 1.0000 1.0000 0.0000
vt 0.0000 1.0000 0.0000
vt 0.0000 0.0000 0.0000
# 4 texture coords

g Box003
f 33/21/13 34/22/13 35/23/13 
f 35/23/13 36/24/13 33/21/13 
f 37/24/14 38/21/14 39/22/14 
f 39/22/14 40/23/14 37/24/14 
f 33/24/15 36/21/15 38/22/15 
f 38/22/15 37/23/15 33/24/15 
f 36/24/16 35/21/16 39/22/16 
f 39/22/16 38/23/16 36/24/16 
f 35/24/17 34/21/17 40/22/17 
f 40/22/17 39/23/17 35/24/17 
f 34/24/18 33/21/18 37/22/18 
f 37/22/18 40/23/18 34/24/18 
# 12 faces

#
# object Box004
#

v  -27.0882 0.3139 0.0107
v  -27.0882 0.3139 0.0097
v  -27.0892 0.3139 0.0097
v  -27.0892 0.3139 0.0107
v  -27.0882 0.3149 0.0107
v  -27.0892 0.3149 0.0107
v  -27.0892 0.3149 0.0097
v  -27.0882 0.3149 0.0097
# 8 vertices

vn 0.0000 -1.0000 -0.0000
vn 0.0000 1.0000 -0.0000
vn 0.0000 0.0000 1.0000
vn -1.0000 0.0000 -0.0000
vn 0.0000 0.0000 -1.0000
vn 1.0000 0.0000 -0.0000
# 6 vertex normals

vt 1.0000 0.0000 0.0000
vt 1.0000 1.0000 0.0000
vt 0.0000 1.0000 0.0000
vt 0.0000 0.0000 0.0000
# 4 texture coords

g Box004
f 43/27/19 42/26/19 41/25/19 
f 41/25/19 44/28/19 43/27/19 
f 47/26/20 46/25/20 45/28/20 
f 45/28/20 48/27/20 47/26/20 
f 46/26/21 44/25/21 41/28/21 
f 41/28/21 45/27/21 46/26/21 
f 47/26/22 43/25/22 44/28/22 
f 44/28/22 46/27/22 47/26/22 
f 48/26/23 42/25/23 43/28/23 
f 43/28/23 47/27/23 48/26/23 
f 45/26/24 41/25/24 42/28/24 
f 42/28/24 48/27/24 45/26/24 
# 12 faces

