# 3ds Max Wavefront OBJ Exporter v0.97b - (c)2007 guruware
# File Created: 10.06.2016 16:41:15

#
# object Box003
#

v  -40.0000 -10.0000 20.0000
v  -40.0000 -10.0000 -20.0000
v  40.0000 -10.0000 -20.0000
v  40.0000 -10.0000 20.0000
v  -40.0000 70.0000 20.0000
v  40.0000 70.0000 20.0000
v  40.0000 70.0000 -20.0000
v  -40.0000 70.0000 -20.0000
v  -30.0000 0.0000 20.0000
v  30.0000 0.0000 20.0000
v  30.0000 0.0000 30.0000
v  -30.0000 0.0000 30.0000
v  30.0000 60.0000 30.0000
v  30.0000 60.0000 20.0000
v  -30.0000 60.0000 20.0000
v  -30.0000 60.0000 30.0000
v  30.0000 0.0000 -30.0000
v  30.0000 60.0000 -30.0000
v  30.0000 60.0000 -20.0000
v  30.0000 0.0000 -20.0000
v  -30.0000 0.0000 -20.0000
v  -30.0000 0.0000 -30.0000
v  -30.0000 60.0000 -30.0000
v  -30.0000 60.0000 -20.0000
v  -20.0000 50.0000 30.0000
v  20.0000 50.0000 30.0000
v  20.0000 10.0000 30.0000
v  -20.0000 10.0000 30.0000
v  -20.0000 10.0000 -30.0000
v  20.0000 10.0000 -30.0000
v  20.0000 50.0000 -30.0000
v  -20.0000 50.0000 -30.0000
v  20.0000 50.0000 40.0000
v  20.0000 10.0000 40.0000
v  -20.0000 10.0000 40.0000
v  -20.0000 50.0000 40.0000
v  20.0000 50.0000 -40.0000
v  20.0000 10.0000 -40.0000
v  -20.0000 10.0000 -40.0000
v  -20.0000 50.0000 -40.0000
# 40 vertices

vn 0.0000 -1.0000 -0.0000
vn 0.0000 1.0000 -0.0000
vn 1.0000 0.0000 -0.0000
vn -1.0000 0.0000 -0.0000
vn 0.0000 0.0000 1.0000
vn 0.0000 0.0000 -1.0000
vn 1.0000 0.0000 0.0000
vn -1.0000 -0.0000 -0.0000
vn 0.0000 -1.0000 0.0000
vn -0.0000 -0.0000 1.0000
vn -0.0000 1.0000 -0.0000
# 11 vertex normals

vt 1.0000 0.0000 0.0000
vt 1.0000 1.0000 0.0000
vt 0.0000 1.0000 0.0000
vt 0.0000 0.0000 0.0000
vt 1.0000 0.1667 0.0000
vt 0.0000 0.1667 0.0000
vt 0.1667 0.0000 0.0000
vt 0.1667 1.0000 0.0000
vt 0.8333 0.0000 0.0000
vt 0.8333 1.0000 0.0000
vt 0.0000 0.8333 0.0000
vt 1.0000 0.8333 0.0000
vt 0.8750 0.1250 0.0000
vt 0.1250 0.1250 0.0000
vt 0.1250 0.8750 0.0000
vt 0.8750 0.8750 0.0000
vt 0.1667 0.8333 0.0000
vt 0.8333 0.8333 0.0000
vt 0.8333 0.1667 0.0000
vt 0.1667 0.1667 0.0000
vt 0.1250 0.0000 0.0000
vt 0.1250 1.0000 0.0000
vt 0.8750 1.0000 0.0000
vt 0.8750 0.0000 0.0000
# 24 texture coords

g Box003
f 1/1/1 2/2/1 3/3/1 
f 3/3/1 4/4/1 1/1/1 
f 5/4/2 6/1/2 7/2/2 
f 7/2/2 8/3/2 5/4/2 
f 4/4/3 3/1/3 7/2/3 
f 7/2/3 6/3/3 4/4/3 
f 2/4/4 1/1/4 5/2/4 
f 5/2/4 8/3/4 2/4/4 
f 9/5/1 10/6/1 11/4/1 
f 11/4/1 12/1/1 9/5/1 
f 13/1/2 14/5/2 15/6/2 
f 15/6/2 16/4/2 13/1/2 
f 10/7/3 14/8/3 13/3/3 
f 13/3/3 11/4/3 10/7/3 
f 9/9/4 12/1/4 16/2/4 
f 16/2/4 15/10/4 9/9/4 
f 17/1/3 18/2/3 19/10/3 
f 19/10/3 20/9/3 17/1/3 
f 20/11/1 21/12/1 22/2/1 
f 22/2/1 17/3/1 20/11/1 
f 23/3/4 22/4/4 21/7/4 
f 21/7/4 24/8/4 23/3/4 
f 19/12/2 18/2/2 23/3/2 
f 23/3/2 24/11/2 19/12/2 
f 4/1/5 10/13/5 9/14/5 
f 9/14/5 1/4/5 4/1/5 
f 5/3/5 1/4/5 9/14/5 
f 9/14/5 15/15/5 5/3/5 
f 10/13/5 4/1/5 6/2/5 
f 14/16/5 10/13/5 6/2/5 
f 15/15/5 14/16/5 6/2/5 
f 15/15/5 6/2/5 5/3/5 
f 2/1/6 21/13/6 20/14/6 
f 20/14/6 3/4/6 2/1/6 
f 7/3/6 3/4/6 20/14/6 
f 20/14/6 19/15/6 7/3/6 
f 21/13/6 2/1/6 8/2/6 
f 24/16/6 21/13/6 8/2/6 
f 19/15/6 24/16/6 8/2/6 
f 19/15/6 8/2/6 7/3/6 
f 16/3/5 25/17/5 26/18/5 
f 13/2/5 16/3/5 26/18/5 
f 11/1/5 13/2/5 26/18/5 
f 11/1/5 26/18/5 27/19/5 
f 12/4/5 11/1/5 27/19/5 
f 12/4/5 27/19/5 28/20/5 
f 16/3/5 12/4/5 28/20/5 
f 25/17/5 16/3/5 28/20/5 
f 22/1/6 29/19/6 30/20/6 
f 17/4/6 22/1/6 30/20/6 
f 18/3/6 17/4/6 30/20/6 
f 18/3/6 30/20/6 31/17/6 
f 23/2/6 18/3/6 31/17/6 
f 23/2/6 31/17/6 32/18/6 
f 22/1/6 23/2/6 32/18/6 
f 29/19/6 22/1/6 32/18/6 
f 33/3/7 34/4/3 27/21/7 
f 27/21/7 26/22/7 33/3/7 
f 35/1/8 36/2/8 25/23/8 
f 25/23/8 28/24/8 35/1/8 
f 27/24/9 34/1/1 35/2/9 
f 35/2/9 28/23/9 27/24/9 
f 34/4/10 33/1/10 36/2/10 
f 36/2/10 35/3/10 34/4/10 
f 26/21/11 25/22/11 36/3/11 
f 36/3/11 33/4/11 26/21/11 
f 37/4/6 38/1/6 39/2/6 
f 39/2/6 40/3/6 37/4/6 
f 37/1/11 40/2/11 32/23/11 
f 32/23/11 31/24/11 37/1/11 
f 31/23/7 30/24/7 38/1/7 
f 38/1/7 37/2/7 31/23/7 
f 39/3/9 38/4/9 30/21/9 
f 30/21/9 29/22/9 39/3/9 
f 32/22/8 40/3/8 39/4/8 
f 39/4/8 29/21/8 32/22/8 
# 76 faces

